# xmcd
#
# Track frame offsets:
#	150
#	60737
#	90255
#	160050
#	180095
#
# Disc length: 2935 seconds
#
# Revision: 1
# Processed by: cddbd v1.5.1PL0 Copyright (c) Steve Scherf et al.
# Submitted via: CDex 1.50Beta5
#
DISCID=2a0b7505
DTITLE=Berlioz, H - Cluytens, Andr将ア - Berlioz: Symphonie Fatastique - Cluytens
DYEAR=1986
DGENRE=Classical
TTITLE0=1st Mov. Reveries - Passions (Largo - Allegro agitato - Religiosamente)
TTITLE1=2nd Mov. Un bal (Valse - Allegro non troppo)
TTITLE2=3rd Mov. Scene aux champs (Adagio)
TTITLE3=4th Mov. Marche au supplice (Allegro non troppo)
TTITLE4=5th Mov. Songe d'une nuit du Sabbat (Allegro - Sempre senza stringendo)
EXTD=
EXTT0=
EXTT1=
EXTT2=
EXTT3=
EXTT4=
PLAYORDER=
